# xmcd
#
# Track frame offsets: 
#        150
#        17489
#        28443
#        40573
#        54714
#        72618
#        87249
#        102510
#        116342
#        126815
#        139172
#        154833
#        176055
#        186628
#        202872
#
# Disc length: 2882 seconds
#
# Revision: 0
# Processed by: cddbd v1.5.2PL0 Copyright (c) Steve Scherf et al.
# Submitted via: ExactAudioCopy v1.3
#
DISCID=d80b400f
DTITLE=Ronéll Erasmus - Grootste Country Gospel-treffers
DYEAR=2011
DGENRE=Gospel
TTITLE0=ONE DAY AT A TIME
TTITLE1=ACROSS THE BRIDGE
TTITLE2=I'LL FLY AWAY
TTITLE3=WHERE WE NEVER GROW OLD
TTITLE4=I LOVE TO TELL A STORY
TTITLE5=MANSION OVER THE HILLTOP
TTITLE6=BECAUSE HE LIVES
TTITLE7=BEAUTIFUL ISLE OF SOMEWHERE
TTITLE8=SHALL WE GATHER AT THE RIVER
TTITLE9=JUST A LITTLE TALK WITH JESUS
TTITLE10=I'D RATHER HAVE JESUS
TTITLE11=JESUS LOVES ME
TTITLE12=WILL THE CIRCLE BE UNBROKEN
TTITLE13=WHO AT MY DOOR IS STANDING
TTITLE14=PRECIOUS MEMORIES
EXTD=
EXTT0=
EXTT1=
EXTT2=
EXTT3=
EXTT4=
EXTT5=
EXTT6=
EXTT7=
EXTT8=
EXTT9=
EXTT10=
EXTT11=
EXTT12=
EXTT13=
EXTT14=
PLAYORDER=
